<mxfile host="Electron" agent="Mozilla/5.0 (Macintosh; Intel Mac OS X 10_15_7) AppleWebKit/537.36 (KHTML, like Gecko) draw.io/28.0.4 Chrome/138.0.7204.97 Electron/37.2.1 Safari/537.36" version="28.0.4">
  <diagram name="Page-1" id="KkRfGOCM8opB2iI87PhD">
    <mxGraphModel dx="1540" dy="1782" grid="1" gridSize="10" guides="1" tooltips="1" connect="1" arrows="1" fold="1" page="1" pageScale="1" pageWidth="850" pageHeight="1100" math="0" shadow="0">
      <root>
        <mxCell id="0" />
        <mxCell id="1" parent="0" />
        <mxCell id="0EdLp8EVLcbF2BcT8O4--1" style="edgeStyle=orthogonalEdgeStyle;rounded=0;orthogonalLoop=1;jettySize=auto;html=1;entryX=0;entryY=0.5;entryDx=0;entryDy=0;flowAnimation=1;shadow=0;fontSize=14;" parent="1" source="0EdLp8EVLcbF2BcT8O4--3" target="0EdLp8EVLcbF2BcT8O4--4" edge="1">
          <mxGeometry relative="1" as="geometry" />
        </mxCell>
        <mxCell id="0EdLp8EVLcbF2BcT8O4--2" style="edgeStyle=orthogonalEdgeStyle;rounded=0;orthogonalLoop=1;jettySize=auto;html=1;flowAnimation=1;shadow=0;fontSize=14;" parent="1" source="0EdLp8EVLcbF2BcT8O4--3" edge="1">
          <mxGeometry relative="1" as="geometry">
            <mxPoint x="519" y="-211.48000000000002" as="targetPoint" />
          </mxGeometry>
        </mxCell>
        <mxCell id="0EdLp8EVLcbF2BcT8O4--3" value="shipping" style="rhombus;whiteSpace=wrap;html=1;shadow=0;fontSize=14;" parent="1" vertex="1">
          <mxGeometry x="359" y="-281.48" width="81" height="80" as="geometry" />
        </mxCell>
        <mxCell id="0EdLp8EVLcbF2BcT8O4--4" value="Cart" style="whiteSpace=wrap;html=1;shadow=0;fontSize=14;" parent="1" vertex="1">
          <mxGeometry x="521" y="-291.48" width="78" height="36" as="geometry" />
        </mxCell>
        <mxCell id="0EdLp8EVLcbF2BcT8O4--5" value="Mysql" style="whiteSpace=wrap;html=1;shadow=0;fontSize=14;" parent="1" vertex="1">
          <mxGeometry x="521" y="-231.48000000000002" width="78" height="37" as="geometry" />
        </mxCell>
        <mxCell id="0EdLp8EVLcbF2BcT8O4--6" style="edgeStyle=orthogonalEdgeStyle;rounded=0;orthogonalLoop=1;jettySize=auto;html=1;entryX=0;entryY=0.5;entryDx=0;entryDy=0;flowAnimation=1;shadow=0;fontSize=14;" parent="1" source="0EdLp8EVLcbF2BcT8O4--8" target="0EdLp8EVLcbF2BcT8O4--9" edge="1">
          <mxGeometry relative="1" as="geometry">
            <Array as="points">
              <mxPoint x="479" y="-101.48000000000002" />
              <mxPoint x="479" y="-153.48000000000002" />
            </Array>
          </mxGeometry>
        </mxCell>
        <mxCell id="0EdLp8EVLcbF2BcT8O4--7" style="edgeStyle=orthogonalEdgeStyle;rounded=0;orthogonalLoop=1;jettySize=auto;html=1;entryX=0;entryY=0.5;entryDx=0;entryDy=0;flowAnimation=1;shadow=0;fontSize=14;" parent="1" source="0EdLp8EVLcbF2BcT8O4--8" target="0EdLp8EVLcbF2BcT8O4--10" edge="1">
          <mxGeometry relative="1" as="geometry">
            <Array as="points">
              <mxPoint x="479" y="-101.48000000000002" />
              <mxPoint x="479" y="-42.48000000000002" />
            </Array>
          </mxGeometry>
        </mxCell>
        <mxCell id="0EdLp8EVLcbF2BcT8O4--8" value="payment" style="rhombus;whiteSpace=wrap;html=1;shadow=0;fontSize=14;" parent="1" vertex="1">
          <mxGeometry x="363.5" y="-141.48000000000002" width="81" height="80" as="geometry" />
        </mxCell>
        <mxCell id="0EdLp8EVLcbF2BcT8O4--9" value="Cart" style="whiteSpace=wrap;html=1;shadow=0;fontSize=14;" parent="1" vertex="1">
          <mxGeometry x="521" y="-171.48000000000002" width="78" height="36" as="geometry" />
        </mxCell>
        <mxCell id="0EdLp8EVLcbF2BcT8O4--10" value="RabbitMQ" style="whiteSpace=wrap;html=1;shadow=0;fontSize=14;" parent="1" vertex="1">
          <mxGeometry x="521" y="-61.48000000000002" width="78" height="37" as="geometry" />
        </mxCell>
        <mxCell id="0EdLp8EVLcbF2BcT8O4--11" value="user" style="whiteSpace=wrap;html=1;shadow=0;fontSize=14;" parent="1" vertex="1">
          <mxGeometry x="521" y="-119.48000000000002" width="78" height="36" as="geometry" />
        </mxCell>
        <mxCell id="0EdLp8EVLcbF2BcT8O4--12" style="edgeStyle=orthogonalEdgeStyle;rounded=0;orthogonalLoop=1;jettySize=auto;html=1;entryX=0;entryY=0.5;entryDx=0;entryDy=0;flowAnimation=1;shadow=0;fontSize=14;" parent="1" source="0EdLp8EVLcbF2BcT8O4--14" target="0EdLp8EVLcbF2BcT8O4--27" edge="1">
          <mxGeometry relative="1" as="geometry">
            <Array as="points">
              <mxPoint x="199" y="-371.48" />
              <mxPoint x="199" y="-619.48" />
            </Array>
          </mxGeometry>
        </mxCell>
        <mxCell id="0EdLp8EVLcbF2BcT8O4--13" style="edgeStyle=orthogonalEdgeStyle;rounded=0;orthogonalLoop=1;jettySize=auto;html=1;entryX=0;entryY=0.5;entryDx=0;entryDy=0;flowAnimation=1;shadow=0;fontSize=14;" parent="1" source="0EdLp8EVLcbF2BcT8O4--14" target="0EdLp8EVLcbF2BcT8O4--8" edge="1">
          <mxGeometry relative="1" as="geometry">
            <Array as="points">
              <mxPoint x="199" y="-371.48" />
              <mxPoint x="199" y="-101.48000000000002" />
            </Array>
          </mxGeometry>
        </mxCell>
        <mxCell id="0EdLp8EVLcbF2BcT8O4--14" value="Frontend" style="rhombus;whiteSpace=wrap;html=1;shadow=0;fontSize=14;" parent="1" vertex="1">
          <mxGeometry x="80" y="-411.48" width="81" height="80" as="geometry" />
        </mxCell>
        <mxCell id="0EdLp8EVLcbF2BcT8O4--15" value="" style="endArrow=classic;html=1;rounded=0;flowAnimation=1;shadow=0;fontSize=14;" parent="1" edge="1">
          <mxGeometry width="50" height="50" relative="1" as="geometry">
            <mxPoint x="490.5" y="-101.48000000000002" as="sourcePoint" />
            <mxPoint x="519.5" y="-101.73000000000002" as="targetPoint" />
            <Array as="points">
              <mxPoint x="479" y="-101.48000000000002" />
            </Array>
          </mxGeometry>
        </mxCell>
        <mxCell id="0EdLp8EVLcbF2BcT8O4--16" style="edgeStyle=orthogonalEdgeStyle;rounded=0;orthogonalLoop=1;jettySize=auto;html=1;entryX=0;entryY=0.5;entryDx=0;entryDy=0;flowAnimation=1;shadow=0;fontSize=14;" parent="1" source="0EdLp8EVLcbF2BcT8O4--17" target="0EdLp8EVLcbF2BcT8O4--19" edge="1">
          <mxGeometry relative="1" as="geometry" />
        </mxCell>
        <mxCell id="0EdLp8EVLcbF2BcT8O4--17" value="cart" style="rhombus;whiteSpace=wrap;html=1;shadow=0;fontSize=14;" parent="1" vertex="1">
          <mxGeometry x="359" y="-411.48" width="81" height="80" as="geometry" />
        </mxCell>
        <mxCell id="0EdLp8EVLcbF2BcT8O4--18" style="edgeStyle=orthogonalEdgeStyle;rounded=0;orthogonalLoop=1;jettySize=auto;html=1;entryX=0;entryY=0.5;entryDx=0;entryDy=0;flowAnimation=1;shadow=0;fontSize=14;" parent="1" target="0EdLp8EVLcbF2BcT8O4--20" edge="1">
          <mxGeometry relative="1" as="geometry">
            <mxPoint x="440" y="-371.48" as="sourcePoint" />
          </mxGeometry>
        </mxCell>
        <mxCell id="0EdLp8EVLcbF2BcT8O4--19" value="&lt;span style=&quot;font-weight: 700;&quot;&gt;Redis&lt;/span&gt;" style="whiteSpace=wrap;html=1;shadow=0;fontSize=14;" parent="1" vertex="1">
          <mxGeometry x="521" y="-421.48" width="78" height="36" as="geometry" />
        </mxCell>
        <mxCell id="0EdLp8EVLcbF2BcT8O4--20" value="&lt;span style=&quot;font-weight: 700;&quot;&gt;catalogue&lt;/span&gt;" style="whiteSpace=wrap;html=1;shadow=0;fontSize=14;" parent="1" vertex="1">
          <mxGeometry x="521" y="-361.48" width="78" height="37" as="geometry" />
        </mxCell>
        <mxCell id="0EdLp8EVLcbF2BcT8O4--21" style="edgeStyle=orthogonalEdgeStyle;rounded=0;orthogonalLoop=1;jettySize=auto;html=1;entryX=0;entryY=0.5;entryDx=0;entryDy=0;flowAnimation=1;shadow=0;fontSize=14;" parent="1" source="0EdLp8EVLcbF2BcT8O4--22" target="0EdLp8EVLcbF2BcT8O4--24" edge="1">
          <mxGeometry relative="1" as="geometry" />
        </mxCell>
        <mxCell id="0EdLp8EVLcbF2BcT8O4--22" value="user" style="rhombus;whiteSpace=wrap;html=1;shadow=0;fontSize=14;" parent="1" vertex="1">
          <mxGeometry x="359" y="-532.5" width="81" height="80" as="geometry" />
        </mxCell>
        <mxCell id="0EdLp8EVLcbF2BcT8O4--23" style="edgeStyle=orthogonalEdgeStyle;rounded=0;orthogonalLoop=1;jettySize=auto;html=1;entryX=0;entryY=0.5;entryDx=0;entryDy=0;flowAnimation=1;shadow=0;fontSize=14;" parent="1" target="0EdLp8EVLcbF2BcT8O4--25" edge="1">
          <mxGeometry relative="1" as="geometry">
            <mxPoint x="440" y="-492.5" as="sourcePoint" />
          </mxGeometry>
        </mxCell>
        <mxCell id="0EdLp8EVLcbF2BcT8O4--24" value="&lt;span style=&quot;font-weight: 700;&quot;&gt;Redis&lt;/span&gt;" style="whiteSpace=wrap;html=1;shadow=0;fontSize=14;" parent="1" vertex="1">
          <mxGeometry x="521" y="-542.5" width="78" height="36" as="geometry" />
        </mxCell>
        <mxCell id="0EdLp8EVLcbF2BcT8O4--25" value="&lt;span style=&quot;font-weight: 700;&quot;&gt;MangoDB&lt;/span&gt;" style="whiteSpace=wrap;html=1;shadow=0;fontSize=14;" parent="1" vertex="1">
          <mxGeometry x="521" y="-482.5" width="78" height="37" as="geometry" />
        </mxCell>
        <mxCell id="0EdLp8EVLcbF2BcT8O4--26" style="edgeStyle=orthogonalEdgeStyle;rounded=0;orthogonalLoop=1;jettySize=auto;html=1;entryX=0;entryY=0.5;entryDx=0;entryDy=0;flowAnimation=1;shadow=0;fontSize=14;" parent="1" source="0EdLp8EVLcbF2BcT8O4--27" target="0EdLp8EVLcbF2BcT8O4--28" edge="1">
          <mxGeometry relative="1" as="geometry" />
        </mxCell>
        <mxCell id="0EdLp8EVLcbF2BcT8O4--27" value="user" style="rhombus;whiteSpace=wrap;html=1;" parent="1" vertex="1">
          <mxGeometry x="359" y="-660" width="80" height="80" as="geometry" />
        </mxCell>
        <mxCell id="0EdLp8EVLcbF2BcT8O4--28" value="MangoDB" style="whiteSpace=wrap;html=1;fontStyle=1;shadow=0;fontSize=14;" parent="1" vertex="1">
          <mxGeometry x="521" y="-638.5" width="78" height="37" as="geometry" />
        </mxCell>
        <mxCell id="0EdLp8EVLcbF2BcT8O4--29" value="" style="endArrow=classic;html=1;rounded=0;entryX=0;entryY=0.5;entryDx=0;entryDy=0;flowAnimation=1;shadow=0;fontSize=14;" parent="1" target="0EdLp8EVLcbF2BcT8O4--3" edge="1">
          <mxGeometry width="50" height="50" relative="1" as="geometry">
            <mxPoint x="201.5" y="-241.48000000000002" as="sourcePoint" />
            <mxPoint x="291.5" y="-241.48000000000002" as="targetPoint" />
          </mxGeometry>
        </mxCell>
        <mxCell id="0EdLp8EVLcbF2BcT8O4--30" value="" style="endArrow=classic;html=1;rounded=0;entryX=0;entryY=0.5;entryDx=0;entryDy=0;flowAnimation=1;shadow=0;fontSize=14;" parent="1" edge="1">
          <mxGeometry width="50" height="50" relative="1" as="geometry">
            <mxPoint x="201.5" y="-372.19000000000005" as="sourcePoint" />
            <mxPoint x="359" y="-372.19000000000005" as="targetPoint" />
          </mxGeometry>
        </mxCell>
        <mxCell id="0EdLp8EVLcbF2BcT8O4--31" value="" style="endArrow=classic;html=1;rounded=0;entryX=0;entryY=0.5;entryDx=0;entryDy=0;flowAnimation=1;shadow=0;fontSize=14;" parent="1" edge="1">
          <mxGeometry width="50" height="50" relative="1" as="geometry">
            <mxPoint x="201.5" y="-493.21000000000004" as="sourcePoint" />
            <mxPoint x="359" y="-493.21000000000004" as="targetPoint" />
          </mxGeometry>
        </mxCell>
      </root>
    </mxGraphModel>
  </diagram>
</mxfile>
